<?xml version="1.0" standalone="no"?>
<!DOCTYPE svg PUBLIC "-//W3C//DTD SVG 20010904//EN"
 "http://www.w3.org/TR/2001/REC-SVG-20010904/DTD/svg10.dtd">
<svg version="1.0" xmlns="http://www.w3.org/2000/svg"
 width="837.000000pt" height="837.000000pt" viewBox="0 0 837.000000 837.000000"
 preserveAspectRatio="xMidYMid meet">
<metadata>
Created by potrace 1.16, written by Peter Selinger 2001-2019
</metadata>
<g transform="translate(0.000000,837.000000) scale(0.100000,-0.100000)"
fill="#000000" stroke="none">
<path d="M3860 8364 c-270 -18 -665 -95 -946 -185 -268 -86 -604 -232 -799
-349 -27 -16 -57 -33 -65 -37 -25 -11 -264 -169 -280 -184 -8 -8 -33 -26 -54
-39 -47 -28 -172 -127 -270 -212 -29 -24 -30 -27 -14 -45 9 -10 19 -45 22 -83
10 -96 16 -120 30 -120 7 0 23 -11 35 -24 l22 -24 -25 -20 c-31 -24 -33 -43
-6 -67 14 -12 27 -16 47 -11 69 17 80 17 96 1 9 -8 41 -27 71 -40 65 -29 80
-52 71 -106 l-7 -40 -43 6 c-71 11 -118 -33 -60 -55 37 -14 43 -39 15 -60 -37
-28 -20 -51 32 -45 64 8 82 -10 73 -75 -4 -31 -16 -62 -30 -79 -19 -22 -23
-35 -18 -69 7 -50 -8 -72 -48 -72 -38 0 -37 19 1 33 39 15 34 26 -22 57 -26
14 -55 33 -66 43 -31 28 -82 31 -120 7 -30 -18 -33 -24 -27 -53 10 -48 29 -62
85 -62 37 0 55 -5 70 -21 14 -13 16 -21 8 -21 -7 0 -51 -8 -98 -17 l-85 -17
-20 25 c-16 20 -31 25 -73 27 -46 3 -56 0 -71 -20 -23 -30 -52 -24 -69 12 -16
33 -8 77 13 77 8 0 20 10 26 23 18 33 26 36 104 31 l72 -5 12 76 c13 76 27
100 42 72 12 -21 45 -10 69 23 24 34 25 47 5 66 -8 8 -19 32 -25 53 -11 41
-60 93 -142 149 -55 38 -60 59 -25 109 15 23 30 33 48 33 30 0 47 27 24 37 -9
3 -25 3 -37 0 -13 -4 -31 2 -46 14 -14 10 -31 19 -38 19 -19 0 -37 38 -31 65
10 54 -12 44 -99 -44 -87 -89 -88 -91 -85 -135 1 -24 -2 -54 -8 -65 -9 -15 -7
-32 9 -71 21 -53 26 -100 11 -100 -12 0 -41 45 -41 63 0 8 -19 32 -41 52 l-42
38 -31 -34 c-17 -19 -47 -54 -66 -79 -19 -25 -37 -47 -40 -50 -8 -7 -140 -189
-140 -193 0 -2 -29 -47 -65 -102 -61 -94 -69 -115 -41 -115 7 0 49 -33 95 -74
l82 -75 152 5 c84 2 168 7 187 11 63 12 121 -7 100 -32 -31 -37 -173 -48 -340
-26 -52 7 -115 13 -140 15 -70 5 -112 16 -150 41 -75 49 -70 54 -160 -129
l-82 -164 42 -38 c45 -41 70 -59 70 -49 0 3 -9 46 -20 97 -21 94 -21 118 3
118 21 0 41 -29 67 -95 32 -83 69 -156 90 -180 10 -11 20 -40 23 -65 3 -25 9
-59 12 -77 6 -28 4 -33 -17 -38 -13 -3 -55 -5 -93 -3 l-70 3 -1 45 c-1 50 -33
116 -92 188 l-35 44 -13 -32 c-8 -18 -14 -44 -14 -58 0 -13 -7 -30 -15 -36
-12 -9 -13 -17 -4 -47 17 -54 5 -89 -30 -89 -25 0 -30 -6 -44 -51 -10 -28 -17
-55 -17 -60 0 -6 74 -9 173 -7 94 1 214 0 266 -3 84 -5 96 -8 113 -29 14 -17
29 -24 53 -23 19 1 40 -5 46 -13 19 -24 -5 -87 -49 -126 -33 -30 -48 -36 -103
-41 -60 -6 -188 2 -271 18 -36 7 -37 6 -62 -43 -14 -28 -30 -53 -36 -57 -16
-10 -1 -25 26 -25 18 0 29 9 41 35 21 45 52 54 90 26 19 -15 44 -22 81 -22 36
-1 52 -6 52 -15 0 -35 41 -43 293 -54 137 -5 265 -13 285 -16 20 -3 69 0 107
6 39 6 128 11 198 11 126 0 128 0 137 25 11 27 25 31 34 9 9 -24 26 -17 26 10
0 13 -9 33 -21 43 -23 22 -24 31 -14 129 5 44 14 78 22 85 18 15 327 15 346 0
7 -5 46 -13 87 -18 41 -4 77 -8 80 -9 46 -11 104 -19 140 -20 124 -2 159 -6
174 -20 21 -21 79 -19 108 4 20 16 46 21 129 25 57 2 120 0 139 -6 89 -26 183
-87 201 -130 6 -16 25 -43 40 -59 16 -17 29 -37 29 -45 0 -8 6 -14 13 -14 8 0
19 -11 25 -24 12 -27 47 -37 117 -33 42 2 61 22 21 22 -29 0 -56 22 -56 46 0
17 40 31 80 27 8 0 26 0 39 0 23 2 23 3 8 20 -23 25 -21 54 4 86 23 29 21 31
-45 40 -48 6 -50 9 -36 35 9 18 20 21 78 21 37 0 85 -7 108 -15 38 -13 44 -12
81 6 35 17 46 18 92 8 56 -12 69 -26 52 -58 -9 -15 -8 -29 2 -53 8 -18 12 -39
10 -45 -7 -19 44 -16 55 3 5 9 4 38 -2 70 -12 70 -3 77 79 69 166 -16 225 -18
225 -6 0 24 -30 81 -42 81 -8 0 -39 -9 -71 -20 -91 -32 -121 -28 -170 24 -39
40 -47 44 -106 50 -36 3 -68 12 -73 19 -4 6 -8 55 -8 107 0 52 -1 107 -2 123
-1 31 27 67 52 67 27 0 40 22 40 67 0 37 -4 45 -25 55 -34 15 -31 31 5 26 29
-4 40 6 40 38 0 11 -15 14 -64 14 -128 0 -202 27 -194 70 5 23 106 37 272 38
137 2 147 1 166 -20 11 -12 20 -25 20 -28 0 -3 15 -6 33 -6 31 0 34 3 33 28
-1 17 -7 28 -16 29 -9 0 -5 4 8 9 12 5 22 18 22 29 0 11 4 22 9 25 14 9 20 58
10 83 -13 36 -22 222 -11 236 6 7 17 37 25 69 23 90 72 145 232 262 113 82
175 112 175 85 0 -13 -64 -73 -115 -107 -36 -24 -38 -27 -17 -30 31 -5 95 46
197 157 31 34 71 45 80 22 5 -14 9 -13 23 5 27 33 132 87 187 95 28 5 60 11
73 15 21 6 22 4 17 -19 l-7 -25 60 31 60 32 83 -18 c46 -9 87 -21 92 -26 5 -5
2 -33 -8 -66 -9 -31 -14 -59 -12 -62 3 -2 19 21 37 51 19 34 40 58 54 62 22 5
74 -2 216 -31 41 -8 100 -15 130 -15 70 0 110 -26 173 -110 76 -100 132 -242
126 -317 -1 -15 1 -35 4 -43 11 -24 27 -175 36 -325 8 -129 16 -200 27 -233 3
-9 15 -1 38 22 27 29 41 36 72 36 40 0 94 -36 94 -63 0 -7 3 -86 6 -177 5
-136 4 -175 -10 -219 -9 -30 -16 -73 -16 -95 0 -33 -8 -52 -46 -100 l-46 -58
-46 5 c-26 3 -60 10 -76 17 -41 15 -53 8 -66 -42 -20 -72 -53 -161 -73 -195
-21 -36 -54 -44 -64 -15 -10 26 -46 52 -64 48 -12 -2 -19 5 -23 25 -7 36 -18
37 -36 4 -7 -14 -17 -25 -22 -25 -4 0 -8 -8 -8 -18 0 -10 -6 -24 -12 -31 -11
-11 -10 -13 5 -8 21 8 23 -20 2 -47 -8 -11 -15 -33 -15 -48 0 -16 -8 -37 -17
-47 -21 -22 -108 -81 -143 -99 -14 -6 -32 -17 -41 -24 -13 -9 -22 -7 -44 10
-15 12 -32 19 -37 16 -5 -3 -19 1 -31 8 -19 13 -107 22 -162 18 -11 -1 -67 -3
-125 -6 -58 -2 -118 -4 -135 -5 -53 -4 -143 17 -179 42 -19 13 -50 47 -68 75
-31 49 -34 58 -33 135 0 77 2 84 22 89 12 3 35 17 52 33 25 22 40 27 80 27 28
0 52 4 55 9 3 4 20 11 38 15 18 3 40 16 48 27 20 26 101 37 241 33 95 -3 111
-6 144 -29 21 -14 45 -25 54 -25 9 0 29 -7 46 -16 16 -8 41 -14 55 -12 15 1
35 -6 47 -17 56 -53 70 -63 87 -67 16 -3 19 5 22 60 4 60 2 64 -29 96 -28 28
-40 33 -78 32 -36 0 -55 7 -105 42 -34 23 -64 42 -68 42 -3 0 -27 10 -51 21
-35 17 -54 20 -83 14 -47 -10 -93 -10 -158 0 -44 6 -59 4 -115 -21 -35 -16
-88 -43 -117 -61 -29 -17 -72 -35 -95 -38 -74 -13 -80 -14 -91 -25 -5 -5 -18
-10 -27 -10 -13 0 -19 -12 -24 -48 -9 -71 -15 -77 -58 -61 -31 11 -39 11 -54
-3 -25 -21 -119 -22 -127 -1 -5 12 -9 13 -21 3 -12 -10 -18 -10 -30 0 -29 24
-39 -2 -26 -67 6 -32 16 -89 22 -127 5 -38 14 -76 18 -85 5 -9 11 -45 15 -80
3 -36 12 -74 19 -85 8 -14 12 -54 11 -116 -1 -82 2 -101 23 -142 14 -26 30
-52 38 -58 7 -6 11 -19 8 -30 -3 -10 3 -32 13 -49 15 -25 15 -32 5 -45 -35
-42 -87 -5 -153 109 -23 38 -55 86 -71 105 l-30 34 7 -38 c4 -21 29 -83 55
-139 27 -56 54 -116 61 -134 6 -17 20 -39 30 -48 10 -9 21 -38 25 -66 6 -41
10 -49 28 -50 43 -1 81 -35 132 -119 37 -62 67 -97 108 -128 60 -46 107 -105
107 -134 0 -10 3 -17 8 -17 12 3 72 -23 72 -30 0 -12 70 -39 120 -47 25 -3 47
-10 50 -14 3 -4 26 -9 53 -12 43 -5 49 -3 67 23 12 16 32 29 48 31 16 2 31 12
37 26 6 13 19 22 31 22 18 0 23 7 27 38 3 20 11 64 16 97 6 33 11 77 12 98 1
20 8 42 16 48 7 6 13 18 13 25 0 8 4 14 9 14 9 0 41 84 48 123 2 11 13 27 26
38 12 10 16 18 10 19 -24 0 -14 50 12 62 14 6 25 14 25 18 0 4 14 10 31 14 17
3 42 15 56 26 l26 20 13 -25 c14 -27 9 -55 -13 -68 -16 -10 -18 -37 -2 -37 5
0 7 -6 3 -12 -5 -7 -9 -19 -10 -28 -17 -104 -17 -105 -37 -105 -18 0 -38 -47
-33 -77 3 -16 2 -28 -3 -28 -5 0 -8 -10 -8 -22 1 -13 -2 -33 -7 -45 -6 -19 -4
-23 12 -23 22 0 31 24 33 80 0 19 4 44 9 55 6 17 9 14 15 -17 4 -21 4 -45 1
-54 -3 -9 -2 -33 3 -53 6 -20 13 -55 16 -79 3 -24 15 -78 26 -119 10 -42 19
-90 19 -107 l0 -30 34 33 c33 32 71 128 92 231 6 32 7 33 15 13 9 -26 16 -27
53 -13 22 8 26 16 26 53 0 86 -46 274 -74 307 -17 18 -39 93 -25 85 5 -4 9
-11 9 -17 0 -6 11 -26 25 -44 14 -18 25 -37 25 -42 0 -6 13 -38 29 -72 16 -33
37 -90 46 -125 18 -63 19 -65 84 -104 36 -22 98 -52 136 -67 39 -15 98 -45
133 -66 34 -21 65 -38 68 -38 9 0 215 -106 462 -236 47 -26 75 -35 80 -28 4 5
16 11 27 11 11 1 32 5 47 8 24 6 30 2 58 -41 20 -32 30 -58 27 -73 -5 -25 0
-31 73 -97 19 -17 53 -52 75 -79 22 -26 61 -71 88 -100 26 -28 47 -57 47 -63
0 -6 13 -37 29 -69 17 -32 51 -110 76 -173 25 -63 52 -125 60 -136 8 -12 18
-37 23 -55 l8 -34 85 3 c49 2 89 9 97 16 9 9 16 67 21 192 5 98 7 182 4 187
-2 4 -12 7 -22 7 -10 0 -24 15 -34 35 -9 19 -30 41 -47 50 -16 8 -30 18 -30
20 0 3 20 14 44 26 49 23 51 26 61 93 5 31 4 46 -4 46 -6 0 -11 12 -11 26 0
26 1 26 53 21 39 -4 56 -1 70 11 16 14 20 13 47 -13 26 -25 33 -27 55 -17 37
17 59 15 80 -8 10 -11 24 -20 31 -20 17 0 36 -35 32 -60 -4 -26 70 -93 92 -84
8 4 26 9 40 11 14 3 36 12 48 21 20 15 21 20 10 49 -13 34 0 63 28 63 7 0 34
32 60 71 38 59 50 70 69 67 21 -5 23 1 43 106 48 255 63 405 69 694 l6 262
-37 0 c-41 0 -44 -10 -21 -75 32 -87 27 -185 -8 -185 -24 0 -47 35 -47 71 0
62 -54 207 -111 299 -15 25 -31 65 -35 88 -7 47 0 53 83 67 34 5 51 2 93 -19
29 -14 54 -26 56 -26 6 0 5 52 -2 77 -6 21 -7 21 -56 6 -84 -24 -153 0 -128
46 6 12 17 21 24 21 7 0 34 14 60 31 28 19 54 29 66 26 11 -3 20 -1 20 3 0 21
-14 40 -29 40 -9 0 -38 14 -64 30 -50 31 -87 39 -87 17 0 -6 4 -28 10 -47 23
-79 -17 -94 -54 -21 -24 47 -27 48 -58 42 -26 -5 -34 -12 -36 -34 -2 -15 -12
-31 -22 -37 -14 -7 -25 -2 -54 25 -20 18 -36 38 -36 44 0 12 73 46 120 56 20
4 34 15 40 31 11 29 30 32 30 4 0 -10 9 -24 19 -30 26 -13 34 -13 29 2 -6 18
16 38 42 38 11 0 46 -9 76 -20 l56 -19 -6 25 c-4 13 -13 61 -22 106 -28 148
-104 418 -156 558 l-25 64 -11 -32 c-6 -18 -15 -31 -21 -30 -5 2 -23 -12 -38
-31 -25 -29 -34 -33 -57 -27 -29 7 -51 46 -33 58 6 4 8 11 3 15 -4 4 -14 -1
-22 -12 -15 -19 -14 -42 0 -76 5 -11 1 -18 -13 -22 -27 -7 -26 -19 4 -55 14
-17 29 -51 34 -77 7 -38 18 -55 62 -95 30 -27 59 -49 65 -50 6 0 16 11 22 25
l12 25 49 -24 c27 -14 51 -31 54 -38 5 -15 -12 -57 -30 -76 -7 -7 -13 -17 -13
-22 0 -4 -11 -11 -25 -14 -13 -3 -31 -19 -39 -34 -13 -25 -52 -52 -76 -52 -5
0 -21 17 -34 37 -23 33 -24 39 -11 53 19 21 19 39 0 47 -21 7 -65 95 -65 129
0 14 -11 39 -25 55 -26 32 -45 87 -45 134 0 17 -7 41 -16 53 -9 14 -14 38 -12
64 3 42 3 43 48 50 44 6 140 44 150 58 8 12 44 15 59 6 10 -7 13 -5 9 5 -117
286 -287 615 -384 746 -13 17 -24 34 -24 37 0 9 -188 266 -234 318 -37 43 -46
49 -46 31 0 -13 -15 -34 -37 -52 -35 -29 -37 -29 -50 -11 -7 10 -17 36 -21 57
-9 42 -47 69 -82 58 -16 -5 -18 -13 -14 -58 10 -104 7 -100 74 -94 42 3 64 1
79 -10 27 -19 26 -27 -4 -41 -29 -13 -32 -37 -10 -78 25 -48 17 -82 -13 -52
-7 7 -44 12 -91 13 -44 0 -82 3 -85 6 -3 3 0 20 6 37 18 46 2 65 -61 75 -37 6
-58 5 -79 -5 -15 -8 -44 -13 -65 -10 -40 5 -87 -18 -87 -42 0 -23 -36 -46 -72
-46 -32 0 -37 3 -43 31 -9 39 16 69 57 69 21 0 31 6 38 25 5 13 22 31 37 39
15 8 36 24 45 35 11 12 30 21 47 21 27 0 29 4 45 70 9 38 16 75 15 82 -2 7 1
23 5 36 6 18 15 22 51 22 35 0 44 4 48 21 4 13 11 19 20 16 7 -3 23 3 36 12
l22 17 -98 94 c-149 144 -181 171 -330 291 -157 125 -247 187 -452 310 l-144
87 -21 -31 c-37 -55 -78 -40 -55 20 5 14 8 32 5 39 -7 19 -264 139 -441 206
-242 91 -587 184 -810 218 -269 40 -297 42 -620 45 -181 1 -355 1 -385 -1z
m-501 -883 c10 -10 32 -25 47 -33 22 -10 30 -21 32 -47 7 -70 -7 -86 -103
-115 -52 -16 -61 -12 -86 37 -26 50 -21 95 16 143 30 39 64 45 94 15z m-187
-113 c42 -32 -14 -98 -82 -98 -60 0 -90 12 -90 35 0 17 12 27 58 48 65 29 91
32 114 15z m837 -216 c5 -10 30 -27 55 -37 25 -11 46 -23 46 -27 0 -19 -40
-85 -69 -115 -37 -40 -76 -45 -66 -10 4 12 9 29 11 38 2 9 -4 27 -15 40 l-19
24 -26 -28 c-17 -18 -35 -27 -56 -27 -17 0 -41 -6 -53 -14 -12 -8 -38 -17 -58
-21 -32 -6 -38 -3 -62 29 -23 29 -37 86 -23 86 2 0 12 3 20 6 12 4 20 -4 31
-30 19 -45 51 -49 65 -8 5 15 16 38 23 52 25 49 175 81 196 42z m-868 -102
c39 -21 23 -46 -44 -69 -85 -28 -108 -27 -142 9 -23 24 -26 32 -16 44 18 22
168 34 202 16z m-1116 -46 c17 -7 55 -74 55 -98 0 -20 39 -46 70 -46 14 0 31
-5 38 -12 32 -32 -3 -78 -59 -78 -20 0 -44 -3 -53 -6 -21 -8 -21 -40 0 -48 28
-11 12 -47 -25 -60 -31 -10 -36 -17 -52 -73 -9 -34 -20 -67 -24 -72 -12 -20
-45 -12 -57 14 -11 24 -7 54 18 143 6 20 3 22 -29 22 -45 0 -67 -8 -67 -26 0
-8 -4 -14 -10 -14 -5 0 -10 8 -10 18 0 10 -5 23 -11 29 -6 6 -9 26 -7 44 3 34
3 34 56 34 71 0 86 18 77 97 -9 73 0 113 28 126 26 13 40 14 62 6z m4408 -37
c49 -18 55 -25 59 -72 3 -34 6 -40 24 -37 14 2 31 -10 53 -38 26 -33 38 -40
67 -40 24 0 43 -8 59 -25 33 -32 31 -49 -6 -78 -36 -28 -34 -45 11 -102 17
-21 32 -55 36 -81 6 -42 24 -72 24 -40 0 13 4 13 30 0 26 -13 30 -21 30 -55 0
-25 -7 -46 -19 -58 -37 -37 -31 -67 17 -81 20 -5 48 -18 61 -29 20 -15 23 -24
17 -55 -6 -31 -14 -40 -56 -61 -28 -14 -50 -29 -50 -34 0 -5 7 -44 15 -87 9
-46 11 -82 6 -87 -5 -5 -70 -4 -158 3 -81 7 -188 14 -238 17 -57 3 -99 10
-114 20 -23 15 -23 19 -17 90 6 74 6 74 -28 107 -31 32 -34 40 -40 122 -4 48
-11 108 -16 133 -9 47 7 121 36 174 8 15 11 27 6 27 -14 0 -62 -77 -62 -100 0
-22 -29 -60 -46 -60 -6 0 -17 7 -24 15 -10 13 -10 19 3 33 63 69 41 176 -23
112 -27 -27 -68 -26 -79 2 -14 38 -2 55 47 67 86 22 97 26 100 42 3 18 -24 29
-71 29 -19 0 -38 -10 -57 -30 -25 -26 -29 -28 -41 -14 -7 9 -14 32 -15 52 0
21 -5 45 -9 55 -12 29 2 45 54 61 36 10 60 12 82 6 18 -5 37 -6 43 -1 6 5 28
14 48 20 21 7 47 24 59 39 11 15 30 32 42 39 29 16 93 16 140 0z m-3176 -149
c23 -11 28 -20 28 -48 0 -30 -4 -36 -25 -38 -42 -6 -48 -18 -48 -103 0 -76 1
-81 25 -90 13 -5 37 -9 52 -9 36 0 59 -25 44 -48 -7 -13 -32 -19 -94 -25 -99
-8 -154 3 -204 43 -44 35 -31 50 42 50 60 0 57 -5 53 95 -2 77 -5 83 -40 90
-38 7 -62 -22 -55 -66 7 -38 1 -50 -48 -101 -13 -13 -17 -29 -14 -46 4 -21 -4
-38 -40 -79 -47 -56 -73 -65 -109 -39 -18 14 -19 15 -1 48 12 22 36 41 68 57
28 13 53 30 56 38 3 8 -9 29 -28 49 -32 34 -36 35 -84 29 -54 -8 -109 -36
-119 -61 -4 -9 -15 -14 -28 -12 -29 4 -60 64 -66 128 l-4 46 40 12 c22 7 43
19 46 27 10 26 46 16 93 -25 25 -22 53 -40 61 -40 29 0 52 32 52 71 0 21 4 40
8 43 5 3 49 1 97 -4 81 -8 92 -7 120 11 33 21 73 20 122 -3z m-2079 -177 c7
-21 19 -31 40 -36 40 -8 56 -29 48 -61 -10 -37 -36 -74 -52 -74 -8 0 -14 -4
-14 -10 0 -5 -11 -17 -24 -25 -22 -15 -27 -15 -48 -1 -22 15 -29 14 -81 -4
-31 -11 -64 -20 -72 -20 -9 0 -26 -7 -40 -16 -19 -12 -28 -13 -45 -4 -29 16
-23 53 10 60 47 10 129 60 156 95 14 19 35 35 45 35 30 0 57 34 52 64 -7 35
13 33 25 -3z m1518 -148 c-20 -79 -20 -80 13 -91 41 -14 47 -34 24 -74 -27
-46 -40 -45 -49 6 l-9 45 -51 -25 c-80 -38 -98 -63 -102 -143 -5 -80 -4 -81
98 -85 69 -3 83 -11 55 -33 -17 -13 -43 -14 -170 -7 -82 5 -296 8 -475 9 -179
0 -333 4 -342 8 -23 12 -27 26 -21 80 l6 47 71 0 c43 -1 81 -6 96 -15 42 -24
81 -18 118 16 36 33 37 46 6 63 -28 16 -34 29 -22 43 16 19 34 16 51 -9 9 -13
29 -38 46 -57 17 -18 36 -48 43 -67 15 -42 24 -43 32 -4 8 42 24 37 46 -16 18
-40 23 -45 47 -42 27 3 28 6 33 64 7 91 37 117 78 69 39 -45 46 -33 39 68 -7
100 -1 117 39 117 11 0 38 -11 58 -25 20 -14 47 -25 59 -26 12 0 31 -4 42 -8
23 -10 45 4 45 26 0 29 61 88 94 92 4 1 5 -11 2 -26z m289 -131 c6 -4 11 -14
13 -22 2 -8 10 -18 17 -23 18 -10 8 -35 -23 -62 -13 -11 -28 -38 -32 -60 -5
-22 -11 -50 -15 -62 -5 -17 -1 -24 21 -36 l28 -14 -25 -8 c-29 -10 -173 -10
-188 0 -6 3 9 21 37 42 59 44 72 61 72 91 0 14 13 36 30 52 33 30 39 57 15 66
-18 7 -20 30 -2 37 18 8 41 8 52 -1z m4403 -307 c11 -14 28 -25 38 -25 33 0
99 -39 117 -70 35 -59 1 -88 -90 -76 -27 3 -80 9 -120 12 -47 4 -70 10 -68 18
2 6 6 23 9 38 4 17 18 34 37 43 21 11 29 21 25 32 -9 22 3 53 19 53 7 0 22
-11 33 -25z m-5492 -56 c144 1 182 -8 311 -73 75 -39 133 -54 133 -36 0 6 -10
24 -22 40 -35 47 -15 60 95 60 82 0 94 -3 145 -32 50 -29 59 -30 95 -21 28 8
49 8 70 0 22 -7 35 -7 48 2 26 15 59 14 59 -3 0 -8 -16 -20 -35 -27 -22 -8
-35 -20 -35 -31 0 -20 21 -26 94 -30 90 -5 85 -49 -13 -104 -38 -21 -54 -25
-93 -20 -38 5 -49 3 -56 -11 -8 -13 -3 -26 21 -56 34 -42 35 -42 129 -16 26 7
38 15 38 28 0 10 10 31 22 46 11 15 27 43 34 64 21 61 46 73 136 63 55 -6 89
-4 120 5 24 7 73 14 111 15 62 1 70 -1 97 -27 17 -16 30 -35 30 -43 0 -7 5
-12 11 -10 11 4 59 114 59 136 0 6 9 21 20 32 17 17 28 19 63 14 23 -4 50 -11
60 -16 17 -9 24 -38 9 -38 -5 0 -16 -17 -26 -37 -32 -70 -66 -111 -85 -106
-26 7 -36 -15 -18 -35 21 -23 40 -157 27 -182 -5 -10 -10 -33 -10 -51 l0 -32
-192 8 c-298 11 -301 11 -332 24 -22 9 -43 9 -87 0 -60 -12 -154 -4 -144 11 7
12 -12 50 -25 50 -6 0 -10 -11 -10 -25 0 -18 -7 -28 -25 -35 -34 -13 -231 7
-272 28 -30 15 -35 15 -67 0 -29 -14 -51 -15 -147 -8 -67 5 -119 4 -125 -1 -6
-5 -13 -6 -16 -4 -3 3 -81 8 -172 11 -113 3 -179 9 -202 19 -31 13 -34 18 -36
57 -1 24 -1 56 0 72 2 16 -3 45 -10 65 l-12 36 -12 -70 c-7 -38 -13 -120 -13
-182 -1 -115 -9 -150 -45 -190 -24 -28 -56 -29 -86 -5 -33 26 -36 93 -12 257
11 77 24 178 27 225 8 103 17 122 53 118 22 -2 32 -14 52 -56 23 -47 28 -52
39 -38 26 31 66 19 128 -37 99 -91 163 -118 163 -71 0 27 -59 112 -83 120 -11
4 -48 23 -81 43 -34 20 -73 42 -88 49 -56 24 -25 92 31 70 15 -5 85 -9 157 -9z
m-862 -196 c-3 -15 -12 -42 -21 -60 -21 -46 -9 -58 33 -33 18 12 38 19 44 15
14 -8 13 -58 -1 -72 -31 -31 21 -89 69 -76 11 2 23 0 26 -6 5 -7 -24 -9 -86
-8 l-93 2 0 27 c-1 38 -8 41 -35 18 -28 -25 -75 -28 -66 -4 4 10 -4 21 -22 31
l-29 17 21 34 c33 55 101 122 124 122 11 0 24 5 27 10 11 17 14 11 9 -17z
m5914 -48 c21 -18 42 -25 71 -25 27 0 64 -11 103 -31 58 -30 64 -30 102 -18
23 8 51 24 63 37 29 31 52 23 87 -30 19 -28 24 -44 16 -52 -15 -15 -12 -55 5
-72 13 -14 15 -12 17 13 1 15 1 40 0 56 -3 35 24 77 49 77 11 0 29 -11 41 -25
12 -14 31 -25 43 -25 12 0 30 -9 39 -19 17 -18 17 -21 0 -46 -9 -14 -25 -30
-34 -35 -15 -8 -16 -16 -7 -59 7 -37 6 -59 -3 -81 -15 -36 -26 -31 -46 19 -8
21 -26 44 -40 51 -21 12 -26 11 -38 -6 -14 -18 -16 -18 -44 -1 -44 25 -62 22
-62 -10 0 -16 3 -37 6 -49 8 -29 56 -55 90 -48 16 3 48 -2 72 -10 37 -13 42
-13 42 0 0 8 5 12 10 9 6 -3 10 -14 10 -24 0 -14 -10 -20 -41 -24 -46 -6 -284
9 -300 19 -6 3 -50 6 -97 5 -204 -3 -316 21 -210 45 40 9 42 12 56 62 18 66
35 65 72 -3 30 -56 62 -78 100 -69 14 3 42 7 64 9 48 4 62 17 47 42 -6 10 -11
14 -11 9 0 -10 -52 22 -63 40 -4 7 -24 16 -45 20 -62 11 -108 40 -122 76 -40
104 -35 101 -100 58 -25 -16 -58 -30 -73 -30 -27 0 -28 1 -25 47 2 39 7 48 23
51 59 9 67 13 62 32 -3 12 1 24 11 30 24 14 27 13 60 -15z m740 3 c6 -7 21
-53 35 -103 14 -49 33 -110 41 -133 13 -34 15 -55 7 -94 -6 -34 -4 -107 7
-229 11 -125 13 -199 6 -246 l-9 -68 -37 -3 c-20 -2 -42 -10 -48 -18 -10 -11
-56 -14 -260 -14 -190 0 -250 -3 -258 -13 -25 -30 -29 -100 -19 -296 12 -238
7 -270 -47 -289 -61 -22 -92 12 -88 98 1 19 4 112 6 205 2 94 9 186 15 205 6
19 11 47 11 61 0 26 -3 27 -57 32 -32 2 -116 4 -188 3 l-130 -1 0 -80 c0 -76
1 -79 25 -85 39 -9 53 -75 55 -280 2 -96 8 -202 14 -235 6 -33 11 -61 11 -62
0 -1 -9 -7 -19 -13 -14 -7 -27 -7 -45 1 -21 10 -30 9 -52 -6 -21 -13 -38 -16
-79 -10 -29 3 -61 12 -71 20 -18 13 -18 16 -1 82 9 37 17 86 17 109 0 29 6 46
21 60 19 17 23 17 47 3 16 -8 28 -25 30 -39 5 -44 43 -160 53 -160 4 0 7 12 4
28 -5 29 -15 229 -15 300 0 43 0 43 -32 40 -29 -3 -33 -7 -39 -41 -12 -73 -52
-77 -63 -5 -4 24 -7 103 -7 175 -1 187 0 184 -87 199 -81 14 -595 14 -609 1
-4 -5 -9 -61 -10 -125 -1 -69 -8 -142 -17 -179 -9 -33 -16 -77 -16 -98 0 -38
-14 -75 -29 -75 -5 0 -14 33 -20 73 -22 138 -30 172 -55 246 -14 41 -26 83
-26 93 0 45 89 158 124 158 7 0 23 24 37 53 21 45 32 57 84 84 33 17 63 29 67
27 16 -10 7 -34 -27 -65 -35 -33 -47 -69 -23 -69 7 0 86 -5 175 -11 145 -10
166 -9 188 5 27 18 55 21 55 6 0 -20 82 -28 280 -29 113 -1 226 -4 251 -7 28
-4 55 -1 69 6 19 10 22 18 18 54 -3 23 -13 55 -23 70 -18 26 -22 28 -64 21
-100 -16 -96 -19 -99 61 -2 58 0 73 16 87 16 15 20 15 38 2 18 -14 18 -16 2
-29 -24 -17 -23 -39 2 -61 16 -15 25 -16 44 -7 14 6 26 21 28 33 4 32 63 66
83 49 8 -7 15 -20 15 -30 0 -21 28 -34 44 -20 21 17 117 33 129 21 17 -17 -8
-37 -81 -61 -82 -27 -102 -48 -102 -106 0 -52 19 -66 74 -57 30 5 36 3 36 -12
0 -15 12 -17 108 -15 59 1 124 -2 145 -8 21 -6 103 -11 183 -11 125 -1 144 0
144 14 0 9 -15 24 -33 35 l-33 20 13 77 c7 43 18 91 23 107 16 46 12 118 -10
181 -27 77 -36 224 -20 309 15 83 42 115 68 84z m122 -968 c22 -12 60 -107 60
-150 0 -64 -63 -79 -119 -28 -29 26 -35 39 -39 84 -7 86 36 127 98 94z m-146
-52 c12 -58 14 -337 3 -352 -7 -9 -31 -17 -57 -18 -39 -3 -45 0 -48 18 -2 14
7 29 24 43 l26 21 -7 144 c-4 79 -4 149 -1 155 4 6 18 11 31 11 17 0 26 -7 29
-22z m435 -1067 c25 -34 26 -58 6 -85 -8 -11 -15 -36 -15 -55 0 -40 -31 -88
-49 -77 -6 4 -11 23 -11 41 0 39 -20 55 -68 55 -28 0 -82 33 -82 49 0 5 9 20
21 35 19 24 22 25 42 11 12 -8 34 -15 49 -15 23 0 28 4 28 23 0 15 9 28 23 35
32 15 34 15 56 -17z"/>
<path d="M4670 6483 c-8 -1 -45 -5 -81 -8 -55 -5 -73 -12 -100 -36 -44 -39
-31 -50 68 -59 90 -9 133 -23 185 -59 41 -29 50 -43 41 -67 -4 -12 -14 -14
-36 -10 -16 3 -49 -1 -73 -9 -31 -10 -73 -14 -135 -12 -84 3 -94 2 -132 -23
-23 -15 -55 -34 -71 -44 -15 -10 -24 -21 -20 -26 5 -4 41 -10 81 -12 52 -3 77
-9 92 -22 23 -21 19 -36 -10 -36 -12 0 -19 -5 -17 -12 14 -41 169 -62 245 -33
69 27 80 41 42 54 -46 16 -31 36 27 36 48 0 49 1 49 30 1 27 4 30 36 33 29 2
40 11 66 50 78 120 86 147 41 154 -13 2 -28 14 -35 29 -16 34 -27 41 -88 65
-43 16 -126 25 -175 17z"/>
<path d="M5261 6425 c-24 -19 -47 -35 -51 -35 -3 0 -16 -17 -28 -38 -23 -42
-22 -59 11 -135 17 -39 27 -49 58 -59 32 -9 38 -16 41 -42 3 -29 6 -31 48 -36
34 -4 44 -9 41 -20 -16 -62 17 -84 125 -84 88 1 134 24 134 66 0 28 0 28 70
28 39 0 70 4 70 8 0 19 -99 92 -124 92 -38 0 -208 29 -231 40 -11 5 -35 12
-52 15 -18 4 -33 11 -33 17 0 6 17 27 38 48 42 43 102 60 206 60 73 0 111 19
86 44 -31 30 -135 55 -252 60 l-113 5 -44 -34z"/>
<path d="M4899 5735 c-114 -42 -141 -72 -98 -111 19 -17 34 -19 163 -15 163 4
170 4 256 -4 58 -6 68 -4 88 15 31 29 25 48 -26 84 -41 29 -49 31 -150 33 -59
1 -127 4 -152 7 -25 2 -61 -1 -81 -9z"/>
<path d="M4865 5160 c-3 -5 -30 -10 -60 -10 -38 0 -54 -4 -59 -15 -3 -8 -1
-15 4 -15 6 0 10 -5 10 -11 0 -6 14 -28 30 -49 17 -21 30 -43 30 -49 0 -7 6
-11 13 -10 6 1 26 -3 42 -10 51 -21 191 -25 289 -8 81 14 91 19 123 53 39 43
39 78 0 90 -12 3 -30 13 -40 22 -16 14 -27 14 -88 4 -91 -16 -148 -15 -179 3
-29 16 -106 20 -115 5z"/>
<path d="M71 4983 c-6 -21 -17 -85 -25 -143 -9 -58 -20 -139 -27 -180 -6 -41
-14 -228 -16 -416 -4 -274 -2 -368 11 -480 18 -151 42 -316 56 -379 4 -22 14
-67 21 -100 6 -33 21 -94 31 -135 11 -41 23 -88 27 -105 4 -16 13 -46 20 -65
6 -19 25 -75 41 -125 97 -295 248 -617 408 -870 45 -71 88 -139 95 -150 17
-27 140 -199 147 -205 3 -3 21 -25 40 -50 19 -25 37 -47 40 -50 3 -3 42 -48
87 -100 88 -103 150 -166 157 -159 18 19 78 194 86 252 9 65 40 227 75 392 12
61 63 257 130 505 79 291 125 487 125 528 0 65 42 261 85 402 23 74 100 273
148 381 29 64 98 132 209 204 40 27 88 61 106 77 18 15 39 28 46 28 7 0 48 16
91 36 126 58 158 65 303 68 114 2 135 0 145 -14 7 -9 25 -23 42 -31 47 -23 57
-74 51 -269 -3 -91 -10 -203 -15 -250 -23 -197 -24 -219 -11 -250 11 -26 10
-33 -4 -49 -14 -15 -17 -46 -20 -182 -2 -132 -7 -177 -23 -229 -25 -77 -43
-154 -43 -178 0 -9 -5 -34 -11 -54 -8 -31 -14 -38 -36 -38 -20 0 -24 -3 -17
-17 16 -38 14 -112 -7 -198 -21 -92 -25 -185 -8 -216 5 -10 9 -33 9 -51 0 -18
8 -53 17 -78 15 -38 17 -83 17 -285 -1 -283 -21 -441 -59 -463 -9 -5 -16 -36
-21 -92 -5 -71 -13 -99 -47 -168 l-40 -82 22 -24 c25 -26 21 -47 -17 -88 -17
-18 -40 -29 -70 -34 -28 -4 -56 -17 -75 -34 -27 -24 -29 -30 -18 -44 15 -18
56 -22 66 -6 10 16 35 12 35 -5 0 -9 -7 -18 -15 -21 -8 -3 -17 -15 -21 -26 -5
-16 -12 -19 -36 -14 -16 3 -41 15 -55 26 -14 11 -29 20 -34 20 -4 0 -35 16
-69 36 -33 20 -63 35 -65 32 -6 -6 110 -128 122 -128 5 0 18 -9 28 -19 16 -19
16 -21 -5 -50 -28 -40 -24 -85 9 -89 19 -3 22 -8 18 -28 -4 -22 2 -28 47 -50
28 -14 71 -34 96 -44 25 -10 83 -35 129 -54 47 -20 86 -34 89 -32 2 3 -8 27
-24 54 l-27 48 20 60 c11 33 48 98 81 145 52 72 65 101 86 179 14 51 38 116
53 144 l27 51 2 245 1 245 36 70 c36 69 58 140 94 299 20 89 39 108 48 49 3
-21 11 -64 18 -96 l12 -58 19 35 c17 32 18 39 6 62 -11 19 -11 34 -3 65 9 36
8 41 -14 62 -43 40 -44 48 -17 153 31 119 42 171 50 244 4 30 11 62 15 71 9
18 59 287 80 429 9 66 19 95 43 130 29 43 31 48 28 139 -1 51 -9 108 -16 126
-14 32 -15 32 -97 39 -102 8 -199 26 -199 36 0 4 -12 6 -27 4 -28 -4 -28 -4
-3 5 43 15 111 12 198 -10 60 -16 86 -19 94 -11 8 8 6 62 -6 194 -36 384 -84
581 -158 661 -19 19 -40 26 -113 36 -101 13 -193 17 -202 8 -5 -6 -93 51 -93
61 0 2 25 1 55 -3 89 -11 111 -2 124 51 6 24 9 55 5 69 -4 15 1 43 11 68 21
51 20 208 -2 442 l-8 80 -60 -3 c-33 -1 -73 -6 -90 -11 -34 -9 -35 -19 -15
-106 8 -37 8 -93 -1 -220 -6 -93 -15 -173 -18 -178 -10 -10 -119 51 -136 76
-8 12 -19 52 -24 88 -12 75 -16 256 -6 282 4 9 4 28 1 42 -5 21 -12 25 -41 25
-18 0 -37 -5 -40 -11 -5 -7 -14 -4 -26 7 -26 24 -33 12 -19 -31 19 -59 -15
-395 -45 -441 -22 -34 -53 -28 -77 16 -15 28 -18 48 -14 95 3 42 -1 84 -15
140 -23 87 -20 122 14 191 11 24 19 46 16 48 -2 3 -95 8 -205 12 -143 5 -203
4 -208 -4 -4 -6 -11 -69 -16 -139 -11 -151 -25 -210 -44 -193 -21 16 -28 64
-31 198 -1 68 -6 127 -11 132 -5 4 -45 10 -89 12 -97 4 -106 -9 -48 -73 36
-40 38 -45 38 -112 0 -59 -3 -71 -20 -81 -11 -6 -41 -26 -66 -43 l-46 -33 -6
-87 c-7 -107 -13 -125 -40 -121 -15 2 -26 16 -35 43 -8 22 -23 61 -34 87 -17
38 -20 61 -16 135 5 102 22 137 70 147 l30 6 -7 57 c-4 35 -13 63 -23 71 -15
11 -134 19 -212 14 -19 -2 -84 -4 -145 -6 -60 -1 -130 -6 -155 -9 -25 -4 -61
-3 -80 3 -19 6 -96 11 -170 10 -85 0 -152 5 -180 13 -42 13 -284 14 -317 2 -6
-2 -19 -19 -28 -38 -16 -34 -15 -37 5 -77 22 -44 22 -59 0 -135 -7 -22 -17
-65 -24 -95 -14 -62 -33 -71 -54 -27 -11 24 -12 36 -2 70 14 46 15 69 9 205
-3 68 -8 95 -19 102 -24 15 -29 12 -39 -27z m1072 -73 c32 -20 47 -37 48 -52
1 -13 0 -162 -1 -333 -1 -300 -2 -311 -22 -327 -30 -26 -127 -25 -161 2 -23
18 -25 27 -24 88 1 41 -6 89 -17 123 -17 50 -17 62 -6 100 7 24 14 82 15 129
3 108 14 207 27 243 11 28 49 56 79 57 8 0 36 -13 62 -30z m44 -2938 c0 -23 7
-58 14 -79 16 -48 18 -228 2 -244 -8 -8 -13 -5 -18 12 -4 13 -16 33 -26 45
-30 32 -43 133 -28 219 6 38 16 76 22 83 18 22 32 7 34 -36z"/>
<path d="M3348 4934 c-5 -4 -8 -49 -8 -99 0 -51 -4 -127 -10 -171 -5 -43 -11
-126 -13 -183 l-3 -103 59 7 c32 3 64 8 71 11 8 3 12 32 12 92 0 91 17 146 51
159 30 12 43 -25 43 -119 0 -73 3 -90 17 -95 25 -10 184 26 221 50 l33 22 -7
85 c-7 92 -6 194 2 222 6 19 46 34 79 29 30 -4 45 -30 40 -70 -3 -20 -2 -61 2
-91 l8 -55 48 63 c27 34 61 69 78 77 28 15 29 18 29 86 l0 71 -112 -1 c-208
-2 -522 5 -578 13 -30 4 -58 5 -62 0z"/>
<path d="M3011 4873 c-6 -21 -11 -50 -11 -64 0 -14 -7 -34 -15 -45 -19 -24
-19 -113 -1 -140 9 -12 18 -72 25 -154 14 -169 17 -180 40 -180 40 0 163 33
183 49 19 16 19 19 5 47 -8 16 -20 56 -27 89 -7 33 -18 78 -26 100 -7 22 -18
83 -24 135 -5 52 -16 113 -24 135 -15 42 -45 60 -47 28 0 -14 -2 -15 -6 -3
-20 51 -59 52 -72 3z"/>
<path d="M4360 3813 c-166 -104 -163 -103 -326 -96 -79 3 -144 3 -144 -1 0
-12 51 -96 59 -96 4 0 12 5 18 11 9 9 21 8 46 -5 49 -23 138 -21 169 3 17 14
43 20 84 22 64 2 113 -17 168 -65 16 -14 39 -26 51 -26 21 0 45 -34 45 -64 0
-16 28 -41 36 -33 4 3 2 19 -4 35 -15 44 -2 57 42 42 19 -6 40 -9 46 -5 13 8
13 51 0 74 -5 10 -12 33 -15 51 -10 55 -35 87 -93 116 -29 15 -63 40 -75 56
-11 15 -23 28 -27 28 -3 0 -39 -21 -80 -47z"/>
<path d="M5679 3140 c-19 -22 -52 -49 -74 -60 -45 -22 -173 -50 -192 -43 -7 3
-13 1 -13 -5 0 -9 -91 -67 -135 -85 -19 -8 -19 -9 7 -28 16 -12 25 -26 21 -35
-3 -8 2 -25 11 -38 l16 -25 -35 6 c-22 4 -35 2 -35 -5 0 -6 -7 -9 -16 -5 -13
5 -14 0 -9 -31 6 -29 4 -36 -9 -36 -11 0 -16 9 -16 26 0 14 -4 23 -9 20 -4 -3
-11 -43 -14 -88 -4 -46 -11 -143 -17 -217 l-11 -134 29 -41 c45 -62 109 -105
157 -105 56 -1 141 31 175 65 23 23 32 49 49 129 18 90 19 107 7 162 -18 85
-60 166 -108 211 -60 55 -108 106 -108 115 0 4 8 7 18 7 10 0 59 20 108 43
127 62 145 64 226 23 37 -18 86 -50 109 -70 24 -20 50 -36 59 -36 9 0 21 -5
27 -11 17 -17 52 -1 59 26 9 38 -9 78 -46 100 -43 26 -107 91 -127 130 -17 33
-53 75 -64 75 -4 0 -22 -18 -40 -40z"/>
<path d="M7643 3141 c0 -10 6 -17 12 -15 7 3 10 -8 7 -33 -3 -27 -13 -45 -34
-64 -26 -22 -29 -30 -23 -57 6 -30 21 -39 50 -32 6 1 26 4 45 5 25 2 38 9 47
25 16 33 37 42 68 30 14 -5 31 -10 36 -10 15 0 10 47 -6 53 -8 4 -26 25 -40
47 -20 31 -30 40 -43 34 -30 -13 -72 -16 -72 -6 0 5 -11 17 -24 26 -23 15 -25
14 -23 -3z"/>
<path d="M4920 2929 c-58 -24 -116 -104 -142 -199 -27 -100 -62 -355 -73 -540
-4 -52 -11 -97 -17 -101 -6 -4 -5 -14 3 -27 10 -16 11 -24 2 -33 -9 -9 -9 -18
0 -36 9 -21 8 -27 -8 -39 -15 -11 -16 -17 -7 -26 16 -16 15 -45 0 -51 -10 -3
-10 -9 0 -26 17 -29 15 -62 -4 -76 -16 -11 -16 -14 -1 -45 13 -25 14 -37 6
-53 -6 -11 -9 -40 -6 -65 3 -31 0 -53 -10 -69 -9 -14 -12 -30 -8 -40 5 -10 9
-229 11 -488 2 -259 8 -510 13 -559 5 -48 7 -94 4 -102 -3 -7 1 -29 7 -49 11
-33 10 -39 -9 -59 -22 -23 -28 -61 -11 -71 6 -4 5 -16 -5 -34 -8 -16 -13 -50
-12 -75 2 -41 4 -46 22 -42 11 2 47 7 80 11 55 6 138 19 193 31 18 3 22 11 22
40 0 19 -7 50 -15 70 -8 19 -12 41 -9 48 3 7 -2 35 -10 62 -9 27 -21 87 -27
134 -14 102 -18 385 -7 419 6 17 4 29 -7 41 -13 14 -13 19 -3 22 10 4 14 35
15 119 6 303 14 453 27 483 14 31 27 186 31 364 3 104 18 142 41 100 10 -17
14 -87 15 -263 2 -528 3 -548 29 -583 32 -43 61 -41 115 9 43 39 58 80 36 93
-4 3 -6 17 -3 31 4 26 20 30 57 16 16 -7 14 -9 -13 -14 -18 -4 -32 -12 -32
-18 0 -20 91 -4 109 19 9 12 41 27 73 35 96 25 141 68 192 185 25 57 28 73 24
145 -3 52 -12 102 -26 137 -23 58 -88 133 -139 163 -38 21 -49 22 -29 2 8 -8
19 -15 24 -15 5 0 24 -19 42 -41 30 -38 32 -43 17 -54 -10 -7 -28 -10 -41 -8
-19 4 -24 0 -29 -26 -4 -19 -13 -31 -22 -31 -9 0 -20 -11 -25 -25 -11 -28 -52
-50 -59 -31 -13 35 -56 44 -101 21 -31 -16 -53 -66 -32 -73 15 -5 16 -39 2
-47 -5 -3 -10 -36 -11 -73 l-1 -67 -13 55 c-8 30 -19 98 -26 150 -16 120 -29
87 -24 -57 2 -54 1 -125 -3 -158 l-8 -60 -7 55 c-3 30 -9 121 -13 203 -3 81
-10 150 -15 152 -4 3 -11 31 -14 63 -4 31 -13 67 -21 79 -19 30 -19 169 -1
188 11 10 13 39 9 119 -5 115 4 134 32 64 13 -34 19 -40 26 -28 15 23 12 82
-6 115 -21 40 -44 250 -44 402 0 67 -3 124 -7 126 -20 11 -101 15 -123 6z
m-98 -2283 c-2 -16 1 -32 7 -35 5 -4 11 -24 13 -45 3 -33 0 -39 -19 -42 -12
-2 -26 -5 -31 -6 -18 -6 -81 37 -84 57 -10 52 37 108 87 103 27 -3 30 -6 27
-32z m-22 -179 c50 -6 67 -24 75 -76 3 -20 10 -52 16 -71 6 -19 9 -66 7 -105
l-3 -70 -22 47 c-13 26 -22 57 -20 69 1 11 -6 26 -16 33 -20 13 -34 -1 -43
-46 -5 -22 -21 -34 -52 -37 -4 0 -8 16 -9 37 -8 138 -11 171 -17 199 -10 42 0
59 22 40 10 -8 37 -17 62 -20z"/>
<path d="M8003 2873 c-24 -2 -43 -8 -43 -14 0 -5 4 -9 9 -9 5 0 11 -13 14 -30
7 -34 75 -130 93 -130 16 0 31 20 39 53 6 22 2 31 -19 48 -39 31 -34 48 13 42
40 -6 62 10 43 29 -12 12 -86 18 -149 11z"/>
<path d="M7733 2770 c-31 -16 -48 -33 -61 -64 -11 -22 -33 -56 -50 -75 -29
-29 -32 -39 -31 -90 1 -62 -8 -119 -23 -138 -6 -7 -10 -36 -10 -65 0 -29 -4
-57 -8 -63 -16 -19 -14 -61 3 -85 9 -13 17 -31 17 -39 0 -19 -42 -101 -52
-101 -15 0 -8 -45 12 -78 11 -18 20 -46 20 -63 0 -17 9 -51 19 -77 11 -26 21
-53 23 -61 2 -8 21 10 46 42 23 31 42 58 42 60 0 2 22 37 49 78 85 130 159
269 154 290 -3 10 1 29 10 42 11 18 12 25 2 34 -13 12 -72 26 -113 27 -14 1
-30 12 -40 29 -16 28 -16 29 7 48 22 18 71 25 147 20 36 -3 48 11 50 54 1 17
5 54 9 83 5 35 3 73 -5 110 -18 77 -27 92 -53 91 -12 0 -44 2 -72 6 -40 5 -58
2 -92 -15z"/>
<path d="M6645 1357 c-4 -16 -20 -52 -36 -80 -16 -29 -29 -59 -29 -68 0 -9 -9
-24 -20 -34 -10 -9 -19 -29 -19 -44 0 -26 -31 -147 -43 -166 -3 -5 -9 -26 -13
-45 -7 -30 -24 -71 -55 -130 -4 -9 -13 -43 -20 -75 -8 -33 -18 -66 -23 -73
-18 -23 -1 -23 34 1 35 24 46 50 48 122 1 22 10 55 21 73 11 18 23 54 27 80 3
25 12 57 20 72 7 14 13 35 13 47 0 12 4 24 9 27 5 3 12 32 16 63 4 32 10 60
15 63 13 9 72 168 67 182 -2 7 -8 0 -12 -15z"/>
</g>
</svg>
